<?xml version="1.0" standalone="no"?>
<!DOCTYPE svg PUBLIC "-//W3C//DTD SVG 20010904//EN"
 "http://www.w3.org/TR/2001/REC-SVG-20010904/DTD/svg10.dtd">
<svg version="1.0" xmlns="http://www.w3.org/2000/svg"
 width="1600.000000pt" height="173.000000pt" viewBox="0 0 1600.000000 173.000000"
 preserveAspectRatio="xMidYMid meet">

<g transform="translate(0.000000,173.000000) scale(0.100000,-0.100000)"
fill="#FFFFFF" stroke="none">
<path d="M15535 1683 c-596 -26 -1370 -199 -1963 -437 -633 -255 -1252 -629
-1615 -978 l-92 -87 218 -1 218 0 127 116 c255 234 439 369 747 549 679 398
1602 699 2555 833 l65 10 -95 -1 c-52 -1 -126 -2 -165 -4z"/>
<path d="M170 1123 c0 -18 40 -66 74 -89 85 -58 84 -58 564 -62 l442 -3 0
-315 0 -314 -395 0 -395 0 0 205 0 205 -145 0 -145 0 0 -285 0 -286 598 3 597
3 45 24 c58 30 88 57 111 103 17 34 19 62 19 343 0 281 -2 309 -19 343 -23 46
-53 73 -111 103 l-45 24 -597 3 c-329 1 -598 -1 -598 -5z"/>
<path d="M1870 1050 l0 -80 655 0 655 0 0 80 0 80 -655 0 -655 0 0 -80z"/>
<path d="M3450 655 l0 -475 660 0 660 0 0 80 0 80 -515 0 -515 0 0 395 0 395
-145 0 -145 0 0 -475z"/>
<path d="M5020 655 l0 -475 145 0 145 0 0 475 0 475 -145 0 -145 0 0 -475z"/>
<path d="M5536 1118 c11 -19 152 -217 404 -568 124 -173 241 -336 259 -362 17
-27 36 -48 41 -48 4 0 98 120 208 267 110 148 235 315 279 373 44 58 121 160
171 228 l91 122 -92 0 -92 0 -160 -212 c-229 -304 -326 -428 -335 -428 -6 0
-190 259 -413 583 l-40 57 -164 0 c-129 0 -163 -3 -157 -12z"/>
<path d="M7180 1050 l0 -80 655 0 655 0 0 80 0 80 -655 0 -655 0 0 -80z"/>
<path d="M8760 655 l0 -475 145 0 145 0 0 395 0 395 386 0 386 0 29 -29 c27
-27 29 -35 29 -100 0 -59 -4 -74 -24 -98 l-24 -28 -256 -5 -255 -5 57 -66 c31
-36 132 -154 224 -262 l168 -197 170 0 c93 0 170 2 170 4 0 2 -67 82 -150 177
-82 96 -150 177 -150 180 0 3 33 9 73 12 84 6 132 25 183 69 59 52 74 96 74
218 0 151 -31 208 -140 263 -45 22 -46 22 -642 25 l-598 3 0 -476z"/>
<path d="M10290 1116 c115 -108 392 -364 478 -441 l111 -100 0 -197 1 -198
145 0 145 0 0 208 0 208 237 210 c130 115 265 234 299 264 l62 55 -94 3 -94 3
-251 -216 -251 -217 -27 25 c-14 14 -120 111 -236 216 l-210 191 -164 0 c-141
0 -163 -2 -151 -14z"/>
<path d="M11891 1126 c12 -11 490 -367 507 -377 17 -11 33 -4 128 56 60 38
115 74 122 80 11 10 -18 35 -147 129 l-161 116 -227 0 c-124 0 -224 -2 -222
-4z"/>
<path d="M1870 495 l0 -315 655 0 655 0 0 80 0 80 -510 0 -510 0 0 155 0 155
295 0 295 0 0 80 0 80 -440 0 -440 0 0 -315z"/>
<path d="M7180 495 l0 -315 655 0 655 0 0 80 0 80 -510 0 -510 0 0 155 0 155
295 0 295 0 0 80 0 80 -440 0 -440 0 0 -315z"/>
<path d="M12965 616 c-16 -12 -67 -49 -113 -81 -66 -47 -80 -61 -70 -71 7 -7
96 -74 197 -148 l185 -136 228 0 c125 0 228 2 228 4 0 6 -612 456 -620 456 -3
-1 -18 -11 -35 -24z"/>
</g>
</svg>
